<?xml version="1.0" encoding="UTF-8"?>
<svg version="1.1" viewBox="0 0 1600 1600" width="1280" height="1280" xmlns="http://www.w3.org/2000/svg">
<path transform="translate(0)" d="m0 0h1600v1600h-1600v-1600z" fill="#FBFCFE"/>
<path transform="translate(1119 1e3)" d="m0 0c0.905 0.0838 1.81 0.168 2.74 0.254 1.89 0.176 3.77 0.355 5.66 0.535 4.83 0.456 9.63 0.843 14.5 0.931 1.09 0.0284 2.18 0.0567 3.31 0.0859 2.23 0.0522 4.46 0.0964 6.7 0.133 6.13 0.174 11.4 0.873 17.2 2.83 4.2 1.29 8.5 1.77 12.9 2.31 0.94 0.122 1.88 0.244 2.85 0.37 14.3 2.13 14.3 2.13 28.7 3.07 0.33-2.31 0.66-4.62 1-7 4.38-1.67 7.99-2.25 12.7-2.25 0.649-0.00231 1.3-0.00462 1.97-0.00699 2.17-0.00529 4.34 0.00367 6.51 0.0126 1.57-8.72e-4 3.15-0.00262 4.72-0.00518 4.32-0.00447 8.64 0.00353 13 0.0136 4.66 0.00863 9.32 0.00571 14 0.0042 8.07-0.00105 16.1 0.00523 24.2 0.0165 11.7 0.0163 23.3 0.0215 35 0.024 18.9 0.00438 37.9 0.0177 56.8 0.0366 18.4 0.0184 36.8 0.0325 55.2 0.041 1.13 5.25e-4 2.27 0.00105 3.43 0.00159 5.69 0.00261 11.4 0.00514 17.1 0.00762 47.2 0.0207 94.4 0.0576 142 0.101v122c-75 0.0201-75 0.0201-98.2 0.0257-1.24 2.96e-4 -1.24 2.96e-4 -2.51 5.98e-4 -27.8 0.00662-55.7 0.0119-83.5 0.0161-0.908 1.38e-4 -1.82 2.76e-4 -2.75 4.18e-4 -19.7 0.00299-39.5 0.00576-59.2 0.0083-9.67 0.00125-19.3 0.00254-29 0.00387-1.44 1.96e-4 -1.44 1.96e-4 -2.92 3.96e-4 -31.2 0.00427-62.5 0.0118-93.7 0.021-32.1 0.00942-64.2 0.0156-96.2 0.0176-4.53 2.88e-4 -9.05 6.14e-4 -13.6 9.62e-4 -1.34 1.01e-4 -1.34 1.01e-4 -2.7 2.04e-4 -14.4 0.00118-28.7 0.00583-43.1 0.0118-14.4 0.00587-28.9 0.00814-43.3 0.00667-8.58-7.64e-4 -17.2 0.00129-25.7 0.0073-5.72 0.00373-11.4 0.00388-17.2 0.00103-3.27-0.00152-6.53-8.61e-4 -9.8 0.00305-3.51 0.00396-7.02 0.00188-10.5-0.00184-1.03 0.00263-2.06 0.00525-3.12 0.00796-0.925-0.00225-1.85-0.00449-2.8-0.00681-1.21 2.34e-4 -1.21 2.34e-4 -2.43 4.73e-4 -1.82-0.125-1.82-0.125-2.82-1.12-0.0953-3.14-0.126-6.25-0.114-9.39-1.46e-4 -0.985-2.92e-4 -1.97-4.43e-4 -2.99 7e-4 -3.27 0.00849-6.55 0.0163-9.82 0.00186-2.26 0.00329-4.53 0.00429-6.79 0.00383-5.97 0.0137-11.9 0.0247-17.9 0.0102-6.09 0.0148-12.2 0.0198-18.3 0.0107-12 0.0278-23.9 0.0488-35.9-27.2-0.0236-54.3-0.0411-81.5-0.0518-12.6-0.0051-25.2-0.0121-37.9-0.0236-68.6-0.0614-137 0.171-206 2.88-4.51 0.177-9.03 0.347-13.5 0.517-22.7 0.858-45.5 1.82-68.2 3.11-8.17 0.461-16.4 0.862-24.5 1.21-1.13 0.0487-2.27 0.0973-3.44 0.147-1.15 0.0492-2.3 0.0985-3.48 0.149-63.5 2.72-127 6.39-190 11.1-3.67 0.271-7.34 0.535-11 0.793-1.79 0.126-3.58 0.254-5.37 0.385-2.65 0.189-5.3 0.362-7.95 0.53-1.18 0.087-1.18 0.087-2.38 0.176-3.84 0.227-6.67 0.324-9.92-1.91 4.78-1.73 9.58-2.82 14.6-3.75 1.35-0.254 1.35-0.254 2.73-0.513 13.7-2.52 27.5-4.68 41.2-6.86 3.77-0.599 7.54-1.2 11.3-1.81 60.1-9.7 120-17.5 181-23.1 1.57-0.144 1.57-0.144 3.18-0.291 38.9-3.56 77.9-6.3 117-8.49 3.81-0.214 7.63-0.432 11.4-0.65 39.8-2.26 79.6-3.63 119-4.57 1.28-0.0303 2.56-0.0606 3.88-0.0918 81.5-1.9 163-1.01 323 9.58z" fill="#ABB1B2"/>
<path transform="translate(431,599)" d="m0 0c1.06 3.17 0.964 4.07 0.258 7.21-0.179 0.834-0.358 1.67-0.543 2.53-0.385 1.72-0.77 3.44-1.16 5.16-10 46.6 0.732 99.8 26.1 140 5.25 7.77 11.4 15.6 18.1 22.1 1.17 1.25 1.17 1.25 1.17 3.25h2c1.15 1.12 2.3 2.24 3.41 3.39 6.64 6.72 14 12.2 21.8 17.4l3.17 2.1c68.7 44.8 158 55.2 239 59.1 1.11 0.0578 2.23 0.116 3.38 0.175 66.7 3.36 134 0.181 200-10.2 1.21-0.188 2.43-0.375 3.68-0.568 16.4-2.58 32.4-6.47 48.5-10.3 1.05-0.249 2.1-0.498 3.18-0.754 14.5-3.44 28.7-7.33 43-11.6 4.18-1.24 8.39-2.42 12.6-3.6 6.72-1.9 13.4-3.9 20.1-5.96 29-8.93 58.3-16.9 87.7-24.3 0.713-0.182 1.43-0.364 2.16-0.552 9.09-2.31 18.2-4.2 27.4-5.75 3.24-0.551 6.45-1.17 9.66-1.82 25.1-3.74 50.2-0.616 71.6 13.6 10.9 8.29 21.5 19.5 23.4 33.6 0.93 11.5 0.593 22.2-4 33-0.451 1.1-0.902 2.2-1.37 3.34-18.5 41-66.6 66.5-107 81.7-1.56 0.609-1.56 0.609-3.16 1.23-43.3 16.3-91 23.1-137 26.8-1.18 0.103-2.35 0.206-3.57 0.312-50.5 4.41-111 5.49-158-13.3v-2c1.04-0.0396 2.08-0.0793 3.16-0.12 27.7-1.08 55.3-3.02 82.8-5.88 0.756-0.0776 1.51-0.155 2.29-0.235 24.1-2.48 47.9-6.43 71.7-10.8 1.2-0.218 2.4-0.435 3.64-0.66 52.2-9.61 111-21.2 157-47.3 0.985-0.549 1.97-1.1 2.98-1.66 9.69-5.77 21.3-14.3 25-25.3 0.698-7.18 0.395-12.2-4-18-5.58-5.75-14.2-8.45-22-9-0.705-0.0516-1.41-0.103-2.14-0.156-29.7-1.12-59.8 10.9-87.5 20.2-24.1 8.08-48.7 14.1-73.5 19.9-1.32 0.306-2.63 0.612-3.95 0.918-22.2 5.17-44.5 10-66.9 14.1-0.752 0.139-1.5 0.278-2.28 0.421-21.2 3.89-42.3 7.1-63.7 9.58-1.14 0.135-2.28 0.27-3.45 0.409-37.8 4.42-75.6 6.13-114 5.98-3.11-0.0117-6.23-0.0182-9.34-0.0236-29.4-0.0592-58.7-0.465-87.9-3.13-2.68-0.24-5.36-0.465-8.04-0.685-59.8-4.94-124-12.5-180-36.5-0.711-0.3-1.42-0.599-2.16-0.908-17.3-7.32-33.9-17.5-47.8-30.1-0.82-0.713-1.64-1.43-2.48-2.16-2.54-2.24-5.04-4.53-7.52-6.84-0.886-0.82-1.77-1.64-2.68-2.48-27-25.8-41.9-62.9-42.8-100-0.291-18.1 0.923-35.7 4.5-53.5 0.321-1.64 0.321-1.64 0.649-3.31 10.3-51.6 10.3-51.6 21.4-73.7h2c0.33-1.32 0.66-2.64 1-4z" fill="#A5171A"/>
<path transform="translate(714,557)" d="m0 0c0.756 0.271 1.51 0.541 2.29 0.82 18.7 6.79 35.9 16.5 52.7 27.2 1.49 0.936 2.99 1.87 4.48 2.8 1.63 1.02 3.26 2.05 4.89 3.07 0.73 0.458 1.46 0.915 2.21 1.39 12.1 7.64 23.9 15.7 35.8 23.8 32.4 22.1 32.4 22.1 65.6 43 0.672 0.402 1.34 0.803 2.04 1.22 20.6 12.3 41.6 23 64 31.8 0.878 0.35 1.76 0.7 2.66 1.06 30.4 12.1 61.8 21.2 93.4 29.4 1.91 0.499 3.83 1 5.74 1.5 43.2 11.3 87.2 19.9 131 26.6 1.14 0.173 1.14 0.173 2.31 0.35 3.45 0.52 6.91 1.02 10.4 1.5 1.76 0.254 1.76 0.254 3.55 0.513 1.5 0.205 1.5 0.205 3.03 0.414 2.83 0.714 4.42 1.76 6.6 3.66-7.68 2.95-15.6 3.16-23.8 3.2-0.818 0.0071-1.64 0.0142-2.48 0.0215-52.9 0.353-106-6.69-157-17-3.45-0.683-6.89-1.36-10.3-2.04-35.9-7.03-71.3-15.2-106-27.2-1.03-0.353-2.05-0.706-3.11-1.07-13.6-4.69-26.8-10.1-39.9-15.9-0.735-0.323-1.47-0.646-2.23-0.979-23.2-10.2-45.2-22.1-67.1-34.9-0.927-0.541-0.927-0.541-1.87-1.09-7.08-4.14-14-8.41-20.8-13-8.91-5.88-18-11.5-27.2-16.9-1.79-1.06-3.56-2.14-5.34-3.22-14.2-8.56-30.6-15.9-47.5-12.2-16.2 5.46-27.8 17.6-38 30.8-2.85 3.56-5.93 6.88-9.03 10.2-2.58 2.78-5.08 5.6-7.5 8.51-4.27 4.93-9.39 8.8-14.5 12.8-1.08 0.913-1.08 0.913-2.18 1.84-24.6 20.4-58.6 24.6-89.5 21.9-4.54-0.586-8.92-1.56-13.3-2.77-1.05-0.278-2.09-0.557-3.17-0.844-23.7-7.1-43.9-24.7-55.8-46.2-7.38-14.2-14.1-29.9-15-46h2c1.84 2.32 3.59 4.66 5.31 7.06 18 24.5 41.3 49 72.7 54.3 17.8 2.44 34.4 0.217 49.1-10.6 8.42-6.64 15.9-13.6 22.9-21.8 0.533-0.61 1.07-1.22 1.61-1.85 9.96-11.5 18.4-23.7 26.6-36.5 2.12-3.26 4.28-6.49 6.44-9.72 1.14-1.71 2.25-3.44 3.37-5.16 9.37-14.5 20.6-25.9 37.9-29.8 14.2-2.76 28.7 1.12 42 6z" fill="#4A4D4E"/>
<path transform="translate(1119 1e3)" d="m0 0c0.905 0.0838 1.81 0.168 2.74 0.254 1.89 0.176 3.77 0.355 5.66 0.535 4.83 0.456 9.63 0.843 14.5 0.931 1.09 0.0284 2.18 0.0567 3.31 0.0859 2.23 0.0522 4.46 0.0964 6.7 0.133 6.13 0.174 11.4 0.873 17.2 2.83 4.2 1.29 8.5 1.77 12.9 2.31 0.94 0.122 1.88 0.244 2.85 0.37 14.3 2.13 14.3 2.13 28.7 3.07 0.33-2.31 0.66-4.62 1-7h1c0.144 1.13 0.289 2.27 0.438 3.44 0.174 3.37 0.174 3.37 1.56 4.56 2.19 0.283 4.39 0.557 6.59 0.798 28.7 3.16 57.3 8.8 85.4 15.2v2c1.32 0.33 2.64 0.66 4 1h-36c0 2.48 0.178 4.74 0.5 7.19 0.165 1.26 0.33 2.52 0.5 3.81v-7h2c1.96 15.4-0.717 27.9-7 42-8 0.794-12.7-0.766-19.3-5.25-0.82-0.541-1.64-1.08-2.48-1.64-13.5-9.16-24.6-19.9-31.4-35-0.525-1.16-1.05-2.31-1.59-3.5-0.588-1.31-0.588-1.31-1.19-2.65-8.83-0.398-17.7-0.789-26.5-1.17-4.1-0.179-8.2-0.359-12.3-0.545-17.3-0.781-34.6-1.47-51.9-1.29-22 0.177-22 0.177-28.5-1.57-1.95-0.642-1.95-0.642-3.87 0.582-1.34 0.0612-2.68 0.0583-4.02 0.0217-0.843-0.0201-1.69-0.0402-2.55-0.0609-0.93-0.027-1.86-0.0541-2.82-0.0819-2.04-0.0491-4.09-0.0979-6.13-0.146-1.64-0.0417-1.64-0.0417-3.32-0.0842-16.8-0.422-33.6-0.699-50.3-0.683-0.71 6.25e-4 -1.42 0.00125-2.15 0.00189-7.02 0.00784-14 0.0285-21 0.0616-1.98 0.00881-3.97 0.0153-5.95 0.0217-2.44 0.00811-4.88 0.0205-7.32 0.0377-1.08 0.00327-2.15 0.00654-3.26 0.0099-0.94 0.00524-1.88 0.0105-2.85 0.0159-2.24-0.114-2.24-0.114-4.24-1.11-2.96-0.0504-5.91-0.0401-8.88 0-7.38 0.058-14.8 0.0106-22.1-0.214-37.5-1.12-75-0.938-112-0.914-6.69 0.00375-13.4 0.00242-20.1-0.0018-61.5-0.0376-123 0.506-184 2.94-4.51 0.177-9.03 0.347-13.5 0.517-22.7 0.858-45.5 1.82-68.2 3.11-8.17 0.461-16.4 0.862-24.5 1.21-1.13 0.0487-2.27 0.0973-3.44 0.147-1.15 0.0492-2.3 0.0985-3.48 0.149-63.5 2.72-127 6.39-190 11.1-3.67 0.271-7.34 0.535-11 0.793-1.79 0.126-3.58 0.254-5.37 0.385-2.65 0.189-5.3 0.362-7.95 0.53-1.18 0.087-1.18 0.087-2.38 0.176-3.84 0.227-6.67 0.324-9.92-1.91 4.78-1.73 9.58-2.82 14.6-3.75 1.35-0.254 1.35-0.254 2.73-0.513 13.7-2.52 27.5-4.68 41.2-6.86 3.77-0.599 7.54-1.2 11.3-1.81 60.1-9.7 120-17.5 181-23.1 1.57-0.144 1.57-0.144 3.18-0.291 38.9-3.56 77.9-6.3 117-8.49 3.81-0.214 7.63-0.432 11.4-0.65 39.8-2.26 79.6-3.63 119-4.57 1.28-0.0303 2.56-0.0606 3.88-0.0918 81.5-1.9 163-1.01 323 9.58z" fill="#4A4D4E"/>
<path transform="translate(393,772)" d="m0 0h2c5.91 10.2 5.71 20.9 3.32 32.2-5.4 19.7-19.2 35-33.6 49-4.3 4.22-7.89 8.48-10.8 13.8-0.619 1.11-1.24 2.23-1.88 3.38-1.99 6.4-2.31 12.8 0.562 19 10.7 18.3 37.6 28.2 56.6 34.1 1.22 0.385 2.44 0.771 3.7 1.17 31.5 9.8 64.3 15.9 97 20.3 1.78 0.241 1.78 0.241 3.6 0.487 51.7 6.83 104 9.2 156 10.1 1.15 0.0207 2.3 0.0415 3.48 0.0628 25 0.434 50.1 0.454 75.1 0.0231 0.795-0.0134 1.59-0.0269 2.41-0.0407 7.32-0.124 14.6-0.249 21.9-0.394 4.07-0.0801 8.14-0.15 12.2-0.214 1.53-0.0258 3.06-0.0553 4.59-0.0887 2.11-0.0457 4.22-0.0788 6.32-0.109 1.19-0.0222 2.39-0.0444 3.62-0.0673 2.92 0.203 2.92 0.203 5.92 2.2-27.5 14.6-60.6 19.4-91 24-1 0.155-2 0.309-3.03 0.468-28.2 4.33-56.9 5.66-85.4 5.77-0.934 0.00482-1.87 0.00965-2.83 0.0146-7.06 0.0359-14.1 0.0519-21.2 0.0596-1.04 0.00145-2.07 0.00289-3.14 0.00438-33 0.0372-65.6-0.628-98.4-4.32-0.773-0.0844-1.55-0.169-2.34-0.256-9.26-1.01-18.5-2.25-27.7-3.74-1.17-0.187-2.33-0.374-3.53-0.566-16.7-2.71-33.1-6.18-49.5-10.4-1.54-0.398-1.54-0.398-3.11-0.804-34.3-8.95-73.6-21.2-99.9-46.2-0.813-0.748-1.63-1.5-2.46-2.27-8.91-8.49-15.5-19.2-16.7-31.7-0.286-12.9 5.53-23.3 14.3-32.6 5.28-5.03 11.2-9.08 17.2-13.2 13-9.08 25.1-19.4 36.7-30.2 0.871-0.806 1.74-1.61 2.64-2.44 10.9-10.4 20.8-23 27.4-36.6z" fill="#4A4D4E"/>
<path transform="translate(737,659)" d="m0 0 2 1c1.29 31-12.8 59.1-33.3 81.5-10.2 10.6-21.9 19.2-34.7 26.5-0.606 0.353-1.21 0.705-1.84 1.07-32.4 18.7-75 30.6-112 21.1-1.97-0.659-3.92-1.41-5.84-2.2v-2c0.766-0.255 1.53-0.509 2.32-0.772 37.3-12.5 72.4-28.9 105-50.7 0.661-0.438 1.32-0.877 2-1.33 10.7-7.12 20.8-14.6 30.4-23.2 1.41-1.24 2.81-2.47 4.22-3.7 0.955-0.84 0.955-0.84 1.93-1.7 1.78-1.54 3.59-3.04 5.41-4.54 3.13-2.68 5.78-5.62 8.44-8.76 1.44-1.67 2.94-3.29 4.46-4.88 7.38-7.74 13.5-16.1 19.5-24.9 1.04-1.48 1.04-1.48 2.04-2.48z" fill="#4A4D4E"/>
<path transform="translate(803,702)" d="m0 0 2 1c0.826 30.6-5.62 55.6-27.2 78.4-21.2 22-52.6 42.7-84.2 43.7-1.14-0.00524-2.27-0.0105-3.44-0.0159-1.24-0.00322-2.48-0.00645-3.76-0.00977-1.28-0.00838-2.55-0.0168-3.87-0.0254-1.96-0.00677-1.96-0.00677-3.95-0.0137-3.2-0.0117-6.41-0.0282-9.61-0.0488v-2c0.571-0.285 1.14-0.57 1.73-0.864 20.5-10.3 40.4-21.6 58.3-36.1 1.15-0.893 2.31-1.78 3.46-2.67 6.93-5.32 13.5-10.9 19.9-16.9 2.13-1.98 4.29-3.86 6.53-5.72 18.6-16.3 32.5-37.1 44.1-58.8z" fill="#4A4D4E"/>
<path transform="translate(25.1 1553)" d="m0 0c1.13-0.00175 2.26-0.0035 3.43-0.00531 3.69-0.00435 7.38-0.00151 11.1 0.00189 2.58-6.74e-4 5.16-0.00165 7.74-0.0029 5.38-0.00147 10.8 5.53e-4 16.1 0.00534 6.22 0.00547 12.4 0.00365 18.7-0.00183 6-0.00507 12-0.00455 18-0.00162 2.55 6.69e-4 5.1-1.57e-4 7.65-0.00248 3.55-0.00252 7.09 0.00131 10.6 0.0069 1.59-0.00304 1.59-0.00304 3.21-0.00613 0.959 0.00282 1.92 0.00564 2.9 0.00854 1.26 5.66e-4 1.26 5.66e-4 2.54 0.00114 1.9 0.126 1.9 0.126 2.9 1.13 0.0874 1.85 0.107 3.71 0.0977 5.57-0.00322 1.12-0.00645 2.25-0.00977 3.41-0.00838 1.18-0.0168 2.37-0.0254 3.59-0.00451 1.19-0.00902 2.38-0.0137 3.6-0.0118 2.95-0.0283 5.89-0.0488 8.84-16.2 0.0234-32.4 0.041-48.6 0.0518-7.53 0.00516-15.1 0.0122-22.6 0.0236-6.56 0.00997-13.1 0.0164-19.7 0.0186-3.47 0.0013-6.95 0.00436-10.4 0.0116-3.88 0.00806-7.76 0.00826-11.6 0.0078-1.15 0.0036-2.3 0.00719-3.49 0.0109-1.06-0.00137-2.12-0.00275-3.21-0.00417-0.917 9.22e-4 -1.83 0.00184-2.78 0.00279-2.57-0.123-2.57-0.123-7.57-1.12v-24c8.4-0.719 16.7-1.15 25.1-1.13z" fill="#ADB3B4"/>
<path transform="translate(870,731)" d="m0 0h2c2.39 19.4 1.73 38.1-7 56-0.407 0.888-0.815 1.78-1.23 2.69-12.1 24.5-38.7 44.7-63.8 54.2-10.1 3.32-20.3 5.68-30.9 5.12v-3c2.34-1.8 4.65-3.41 7.12-5 11.8-7.89 22.6-16.5 33-26.3 2.25-2.1 4.52-4.1 6.88-6.07 10.6-9.25 19.5-20.4 28-31.6 0.708-0.923 1.42-1.85 2.14-2.8 9.51-12.7 16.4-25.8 22.2-40.6 0.705-1.62 0.705-1.62 1.71-2.62z" fill="#4A4D4E"/>
<path transform="translate(931,752)" d="m0 0c2.77 1.03 3.85 1.76 5.41 4.32 0.4 0.926 0.799 1.85 1.21 2.8 0.405 0.91 0.81 1.82 1.23 2.76 5.74 15.6 4.45 32-2.42 46.9-6.33 13.2-14.5 23.6-26.4 32.2-0.712 0.513-1.42 1.03-2.16 1.55-4.65 3.12-9.47 4.92-14.8 6.45 0.108-4.23 1.26-6.59 3.88-9.75 20.3-24.8 30.7-55.8 34.1-87.2z" fill="#4A4D4E"/>
<path transform="translate(1059 1039)" d="m0 0c2.96 2.88 4.67 5.18 5.36 9.3-0.139 4.84-0.932 8.43-4.39 11.9-3.76 2.67-7.16 3.07-11.7 2.77-4.62-0.893-7.26-3.21-10.3-6.64-1.57-4.15-1.28-7.58-0.0625-11.8 1.88-3.53 4.23-5.61 7.81-7.44 5.17-0.912 8.94-1.13 13.3 1.91z" fill="#FCFDFF"/>
<path transform="translate(1e3 1026)" d="m0 0c1.76 0.0135 1.76 0.0135 3.55 0.0273 0.892 0.0116 1.78 0.0232 2.7 0.0352v2c0.66 0.33 1.32 0.66 2 1l-2 4c-0.687-0.0348-1.37-0.0696-2.08-0.105-1.35-0.0406-1.35-0.0406-2.73-0.082-1.34-0.0522-1.34-0.0522-2.71-0.105-2.9 0.342-3.71 1.05-5.48 3.29 1.38 2.76 3.02 3.06 5.81 4.31 7.16 3.55 7.16 3.55 9.19 7.69 0.645 3.49 0.73 6.52 0 10-2.68 3.53-4.09 4.65-8.38 5.43-6.03 0.304-9.71-1.02-14.6-4.43 0.33-1.32 0.66-2.64 1-4 1.75-0.625 1.75-0.625 4-1 0.598 0.309 1.2 0.619 1.81 0.938 3.08 1.5 5.81 1.19 9.19 1.06 0.0111-3.38 0.0111-3.38-1-7-2.86-2.25-2.86-2.25-6.44-3.75-6.4-3.01-6.4-3.01-8.56-6.25 0.303-4.54 1.58-8.15 4-12 3.47-1.37 7.07-1.1 10.8-1.06z" fill="#FCFDFF"/>
<path transform="translate(1098,1026)" d="m0 0c2.26 3.59 2.21 6.57 2.12 10.8-0.018 1.17-0.0361 2.34-0.0547 3.55-0.0348 1.34-0.0348 1.34-0.0703 2.7 0.915-0.445 1.83-0.889 2.77-1.35 1.19-0.566 2.38-1.13 3.6-1.71 1.18-0.568 2.37-1.14 3.59-1.72 1-0.401 2.01-0.802 3.04-1.21 0.66 0.33 1.32 0.66 2 1-0.541 3.79-2.12 5.55-5 8h-2c-0.592 2.2-0.592 2.2 0 5 1.66 1.91 3.45 3.57 5.31 5.29 2.01 2.04 2.94 3.96 3.69 6.71-7.45 0-11.6-4.23-17-9-0.33 2.97-0.66 5.94-1 9-1.98-0.33-3.96-0.66-6-1-0.33-11.2-0.66-22.4-1-34 4-2 4-2 6-2z" fill="#FCFDFF"/>
<path transform="translate(1027,1031)" d="m0 0c0.33 1.98 0.66 3.96 1 6 2.31 0.66 4.62 1.32 7 2v4c-2.31 0.66-4.62 1.32-7 2-0.33 3.63-0.66 7.26-1 11 1.98 0.33 3.96 0.66 6 1 0.33 1.98 0.66 3.96 1 6-4.26 0.426-7.01 0.418-10.4-2.25-3.62-3.79-3.57-5.2-3.75-10.3 0.125-3.44 0.125-3.44 1.12-6.44-2.64-0.66-5.28-1.32-8-2 0.688-1.94 0.688-1.94 2-4 2.62-0.75 2.62-0.75 5-1 0.186-1.45 0.186-1.45 0.375-2.94 0.206-1.01 0.413-2.02 0.625-3.06 2.49-1.25 3.41-0.777 6 0z" fill="#FCFDFF"/>
<path transform="translate(1085,1038)" d="m0 0c2 2 2 2 2 6-0.603-0.0116-1.21-0.0232-1.83-0.0352-0.799-0.00902-1.6-0.018-2.42-0.0273-0.789-0.0116-1.58-0.0232-2.39-0.0352-2.27 0.0938-4.19 0.465-6.36 1.1-0.33 2.64-0.66 5.28-1 8 2.42 2.23 3.67 2.97 7 3.25 2.48-0.207 4.61-0.63 7-1.25 1 1 1 1 1.25 3.44-0.124 1.27-0.124 1.27-0.25 2.56-4.28 2.85-7.98 2.86-13 2-4.55-2.32-8.14-5.14-10-10 0.259-4.74 0.922-8.33 4-12 5.42-3.93 9.55-4.56 16-3z" fill="#FCFDFF"/>
<path transform="translate(1049,1081)" d="m0 0c1.32 0.33 2.64 0.66 4 1v22c-11.1 0.488-11.1 0.488-15.2-1.75-2.81-3.49-2.81-3.49-2.81-6.25 2.24-6.49 2.24-6.49 6-9 3.12-0.125 3.12-0.125 6 0h1c0.33-1.98 0.66-3.96 1-6z" fill="#FCFDFF"/>
<path transform="translate(1215,1007)" d="m0 0c-0.33 2.97-0.66 5.94-1 9-0.66-0.33-1.32-0.66-2-1-2.42-0.342-4.82-0.638-7.25-0.902-0.726-0.0826-1.45-0.165-2.2-0.25-2.33-0.265-4.66-0.526-6.99-0.785-23.8-2.65-23.8-2.65-28.6-4.06-0.33-0.66-0.66-1.32-1-2 2.26-1.13 3.6-1.16 6.11-1.24 0.848-0.0264 1.7-0.0528 2.57-0.08 0.918-0.023 1.84-0.046 2.78-0.0697 1.41-0.0383 1.41-0.0383 2.85-0.0773 2-0.0521 3.99-0.101 5.99-0.148 3.05-0.0745 6.11-0.165 9.16-0.257 1.94-0.0485 3.87-0.0961 5.81-0.143 0.914-0.0291 1.83-0.0581 2.77-0.0881 0.854-0.0169 1.71-0.0339 2.59-0.0513 0.749-0.0192 1.5-0.0384 2.27-0.0582 2.1 0.209 2.1 0.209 6.1 2.21z" fill="#ACB2B3"/>
<path transform="translate(1300,1081)" d="m0 0c0.99 0.33 1.98 0.66 3 1 1.33 6.97 1.09 13.9 1 21-2.08 0.0813-4.17 0.139-6.25 0.188-1.74 0.0522-1.74 0.0522-3.52 0.105-3.49-0.316-4.77-0.884-7.23-3.29-0.938-1.75-0.938-1.75-1-4 2.24-6.49 2.24-6.49 6-9 2.04-0.195 2.04-0.195 4.19-0.125 1.89 0.0619 1.89 0.0619 3.81 0.125v-6z" fill="#FCFDFF"/>
<path transform="translate(1252,1083)" d="m0 0 2 2c-0.33 0.99-0.66 1.98-1 3-0.66-0.33-1.32-0.66-2-1-1.37-0.0689-2.75-0.0847-4.12-0.0625-1.28 0.0206-2.56 0.0412-3.88 0.0625-2.33 3.88-2.33 3.88-2.88 8.25 0.872 2.11 0.872 2.11 3.88 3.75 2.32 0.394 4.66 0.735 7 1-0.33-1.65-0.66-3.3-1-5h-2v-2c2.33-0.0424 4.67-0.0409 7 0 1 1 1 1 1.44 3.25-0.532 3.35-1.83 4.84-4.52 6.86-3.67 1.7-7.15 1.05-10.9-0.113-2.82-1.82-4.5-3.01-6-6-0.438-3.85-0.145-5.73 1.69-9.19 4.85-5.9 8.12-6.34 15.3-4.81z" fill="#FCFDFF"/>
<path transform="translate(1344,1082)" d="m0 0c0.99 0.33 1.98 0.66 3 1 0.33 1.65 0.66 3.3 1 5 4.45-0.495 4.45-0.495 9-1 2.42 3.63 2.21 5.38 2.12 9.69-0.018 1.18-0.0361 2.36-0.0547 3.57-0.0232 0.904-0.0464 1.81-0.0703 2.74-1.32-0.33-2.64-0.66-4-1-0.33-3.63-0.66-7.26-1-11-1.65 0.66-3.3 1.32-5 2-0.961 2.88-1.11 4.7-1.06 7.69 0.00902 0.808 0.018 1.62 0.0273 2.45 0.0116 0.615 0.0232 1.23 0.0352 1.86-2.48-1.14-2.48-1.14-5-3-0.523-2.64-0.523-2.64-0.375-5.69 0.0438-1.06 0.0877-2.12 0.133-3.21 0.292-3.73 0.673-7.4 1.24-11.1z" fill="#FCFDFF"/>
<path transform="translate(1376,1087)" d="m0 0c2.47 2.22 2.96 3.44 3.19 6.75-0.0928 1.11-0.0928 1.11-0.188 2.25-0.957 0.0735-0.957 0.0735-1.93 0.148-0.826 0.0748-1.65 0.15-2.5 0.227-0.824 0.0696-1.65 0.139-2.5 0.211-1.02 0.205-1.02 0.205-2.07 0.414-0.33 0.66-0.66 1.32-1 2 2.64 0.66 5.28 1.32 8 2v2c-9 0.618-9 0.618-12.6-1.62-1.77-3.06-1.81-4.89-1.38-8.38 0.9-2.94 1.54-3.75 4.25-5.25 3.15-0.858 5.51-1.17 8.75-0.75z" fill="#F7F8FA"/>
<path transform="translate(1099,1083)" d="m0 0c3.7 2.47 3.92 4.15 5.16 8.22 0.418 0.88 0.418 0.88 0.844 1.78 0.99 0.33 1.98 0.66 3 1 1.32-3.63 2.64-7.26 4-11h5c-0.763 2.4-1.54 4.79-2.31 7.19-0.213 0.674-0.427 1.35-0.646 2.04-1.27 3.89-2.58 7.44-5.04 10.8-2.69 0.312-2.69 0.312-5 0-3.7-5.74-5.42-11.4-7-18l2-2z" fill="#FCFDFF"/>
<path transform="translate(1127 1087)" d="m0 0c3.06 0.312 3.06 0.312 4.71 1.41 1.98 2.78 1.87 5.21 2.04 8.59 0.0986 1.77 0.0986 1.77 0.199 3.57 0.0374 0.904 0.0748 1.81 0.113 2.74-2.12 0.0269-4.25 0.0464-6.38 0.0625-1.18 0.0116-2.37 0.0232-3.59 0.0352-3.04-0.0977-3.04-0.0977-5.04-1.1-0.25-2.31-0.25-2.31 0-5 2.6-2.6 5.58-3.76 9-5-1.98-0.99-3.96-1.98-6-3 2-2 2-2 4.94-2.31z" fill="#F2F4F5"/>
<path transform="translate(1173 1087)" d="m0 0c5.2 0.136 5.2 0.136 7.75 2.25 1.21 4.73 1.04 9.33 0.812 14.2-1.65-0.33-3.3-0.66-5-1-0.33-3.3-0.66-6.6-1-10-1.65 0.66-3.3 1.32-5 2-0.155 1.92-0.155 1.92-0.312 3.88-0.176 2.18-0.176 2.18-0.688 4.12-0.99 0.66-1.98 1.32-3 2-1.07-3.22-1.17-5.67-1.19-9.06-0.0142-1.06-0.0284-2.13-0.043-3.22 0.433-5.1 3.2-5.05 7.67-5.15z" fill="#FCFDFF"/>
<path transform="translate(1270,1087)" d="m0 0c1.44-0.0813 2.87-0.139 4.31-0.188 1.2-0.0522 1.2-0.0522 2.43-0.105 2.26 0.293 2.26 0.293 4.01 1.39 1.84 2.8 1.77 5.28 1.94 8.59 0.0986 1.77 0.0986 1.77 0.199 3.57 0.0374 0.904 0.0748 1.81 0.113 2.74-8.89 1.43-8.89 1.43-13.1-0.188-2.1-1.96-2.75-2.96-2.94-5.81 1.58-1.58 3.38-1.35 5.56-1.56 0.826-0.0838 1.65-0.168 2.5-0.254 0.638-0.0606 1.28-0.121 1.93-0.184v-5h-6c-0.33-0.99-0.66-1.98-1-3z" fill="#EFF1F3"/>
<path transform="translate(1030,1089)" d="m0 0c2.45 2.53 3 3.43 3 7-3.63-0.33-7.26-0.66-11-1 0.33 1.32 0.66 2.64 1 4 2.31 0.66 4.62 1.32 7 2-0.33 0.99-0.66 1.98-1 3-8-0.342-8-0.342-11.6-2.69-1.9-3.06-2.03-4.77-1.44-8.31 1.95-2.67 3.31-3.77 6.44-4.81 2.85-0.208 4.85-0.114 7.56 0.812z" fill="#FCFDFF"/>
<path transform="translate(1309,1088)" d="m0 0c3.78 1.26 4.01 2.69 6 6 0.99 0.33 1.98 0.66 3 1 0.66-1.98 1.32-3.96 2-6 0.99 0.33 1.98 0.66 3 1-2.02 7.14-3.93 13.8-8 20h-5v-3c0.99-0.33 1.98-0.66 3-1-0.559-1.45-0.559-1.45-1.13-2.92-0.478-1.28-0.956-2.55-1.43-3.83-0.247-0.634-0.494-1.27-0.748-1.92-1.27-3.44-2.16-5.85-0.689-9.33z" fill="#FCFDFF"/>
<path transform="translate(996,1084)" d="m0 0v2c1.32 0.33 2.64 0.66 4 1-3 1-3 1-6.5-0.0625-1.15-0.309-2.31-0.619-3.5-0.938-3.17 1.62-3.17 1.62-3.51 4.16-0.058 0.812-0.116 1.62-0.176 2.46-0.0657 0.817-0.131 1.63-0.199 2.48-0.0374 0.626-0.0748 1.25-0.113 1.9 3.2 2.14 4.02 2.23 7.69 2.12 0.808-0.018 1.62-0.0361 2.45-0.0547 0.615-0.0232 1.23-0.0464 1.86-0.0703v3c-3.79 2.52-5.5 2.52-10 2-4-1.84-6.51-3.74-8.12-7.88 0.193-4.83 1.56-8.61 5.06-12 4.4-2.4 6.48-2.29 11.1-0.125z" fill="#FCFDFF"/>
<path transform="translate(982,1037)" d="m0 0c1.32 0.33 2.64 0.66 4 1 0.33 7.92 0.66 15.8 1 24-5 1-5 1-7 0-0.0579-3.79-0.0936-7.58-0.125-11.4-0.0168-1.08-0.0335-2.16-0.0508-3.27-0.00645-1.03-0.0129-2.06-0.0195-3.12-0.0105-0.953-0.0209-1.91-0.0317-2.89 0.227-2.34 0.227-2.34 2.23-4.34z" fill="#FCFDFF"/>
<path transform="translate(1215 1087)" d="m0 0c1.33-0.0561 1.33-0.0561 2.68-0.113 2.45 0.426 2.45 0.426 4.25 2.05 1.53 3.04 1.49 5.23 1.38 8.62-0.0271 1.08-0.0541 2.16-0.082 3.27-0.0348 0.82-0.0696 1.64-0.105 2.48-1.32-0.33-2.64-0.66-4-1-0.0735-0.94-0.0735-0.94-0.148-1.9-0.0748-0.817-0.15-1.63-0.227-2.48-0.0696-0.812-0.139-1.62-0.211-2.46-0.243-2.37-0.243-2.37-2.41-4.16-0.99 0.66-1.98 1.32-3 2-0.583 2.66-0.583 2.66-0.688 5.62-0.0657 1-0.131 2.01-0.199 3.04-0.0374 0.771-0.0748 1.54-0.113 2.34-3.44-2.23-3.92-2.63-4.88-6.88-0.285-3.52 0.158-5.98 1.88-9.12 1.66-1.66 3.6-1.25 5.88-1.31z" fill="#FCFDFF"/>
<path transform="translate(1158 1088)" d="m0 0c2.44 1.25 2.44 1.25 4.44 4.25v4h-11c0.99 1.48 0.99 1.48 2 3 3.57 0.736 3.57 0.736 7 1v3c-1.58 0.0815-3.17 0.139-4.75 0.188-1.32 0.0522-1.32 0.0522-2.67 0.105-3.1-0.353-4.4-1.07-6.58-3.29-0.692-2.7-0.496-5.26 0-8 1.5-2 1.5-2 3-3 0.578 0.66 1.15 1.32 1.75 2 2.25 2.44 2.25 2.44 6.25 2-1.83-3.17-1.83-3.17-5-5 3-1 3-1 5.56-0.25z" fill="#FCFDFF"/>
<path transform="translate(1052 1043)" d="m0 0c2.91 1.3 3.92 2.23 5.38 5.06 0.438 3.06 0.438 3.06 0 6-1.56 1.94-1.56 1.94-4 3-6.33-0.327-6.33-0.327-9-3-0.438-2.81-0.438-2.81 0-6 3.7-4.97 3.7-4.97 7.62-5.06z" fill="#ACB2B3"/>
<path transform="translate(1383,1088)" d="m0 0h3c0.268 0.969 0.536 1.94 0.812 2.94 0.392 1.01 0.784 2.02 1.19 3.06 0.99 0.33 1.98 0.66 3 1 0.99-1.98 1.98-3.96 3-6 1.32 0.33 2.64 0.66 4 1-1.65 4.29-3.3 8.58-5 13-5 0-5 0-6.62-1.56-4.55-8.07-4.55-8.07-4.06-11.9 0.227-0.516 0.454-1.03 0.688-1.56z" fill="#FCFDFF"/>
<path transform="translate(1332,1087)" d="m0 0h3v2c1.32 0.66 2.64 1.32 4 2-2.64-0.33-5.28-0.66-8-1 0.33 0.66 0.66 1.32 1 2 0.969 0.309 1.94 0.619 2.94 0.938 3.06 1.06 3.06 1.06 5.06 4.06 0.188 2.62 0.188 2.62 0 5-1 1-1 1-3.29 1.1-1.37-0.0174-1.37-0.0174-2.78-0.0352-0.919-0.00902-1.84-0.018-2.79-0.0273-0.71-0.0116-1.42-0.0232-2.15-0.0352v-3h6c-1.68-3.18-1.68-3.18-4.56-3.88-0.804-0.371-1.61-0.743-2.44-1.12-0.812-2.62-0.812-2.62-1-5 0.99-0.66 1.98-1.32 3-2 0.66 0.33 1.32 0.66 2 1v-2z" fill="#FCFDFF"/>
<path transform="translate(1068,1084)" d="m0 0c1.94 0.75 1.94 0.75 4 2 0.812 2.06 0.812 2.06 1 4l-1 1c-0.417 3.42-0.417 3.42 0 7 1.92 1.77 1.92 1.77 4 3v3c-5.49 0.366-5.49 0.366-7.62-1.17-1.8-2.4-2.1-4.38-2.56-7.33-0.159-0.959-0.317-1.92-0.48-2.91-0.332-2.59-0.332-2.59-0.332-5.59 0.99-0.33 1.98-0.66 3-1v-2z" fill="#FCFDFF"/>
<path transform="translate(1189,1084)" d="m0 0c1.98 1.65 3.96 3.3 6 5-0.99 0.66-1.98 1.32-3 2-0.577 1.96-0.577 1.96-0.688 4.12-0.155 1.92-0.155 1.92-0.312 3.88 2.47 0.99 2.47 0.99 5 2v2c-6.75 0.125-6.75 0.125-9-1-0.379-2.4-0.379-2.4-0.562-5.38-0.204-3.16-0.431-5.61-1.44-8.62l4-4z" fill="#FCFDFF"/>
<path transform="translate(1008 1087)" d="m0 0c3.56 0.375 3.56 0.375 5.5 2.38 0.351 0.66 0.701 1.32 1.06 2-0.969 0.289-1.94 0.578-2.94 0.875-3.17 0.767-3.17 0.767-4.06 3.12-0.225 1.54-0.408 3.08-0.562 4.62-0.0838 0.817-0.168 1.63-0.254 2.48-0.0606 0.626-0.121 1.25-0.184 1.9-1.32-0.33-2.64-0.66-4-1-0.0538-2.29-0.0927-4.58-0.125-6.88-0.0232-1.28-0.0464-2.55-0.0703-3.87 0.275-4.59 1.09-5.14 5.63-5.63z" fill="#FCFDFF"/>
<path transform="translate(1262,1081)" d="m0 0h2v22c-1.32-0.66-2.64-1.32-4-2-0.0538-2.96-0.0936-5.92-0.125-8.88-0.0168-0.842-0.0335-1.68-0.0508-2.55-0.00645-0.806-0.0129-1.61-0.0195-2.44-0.0157-1.12-0.0157-1.12-0.0317-2.25 0.227-1.88 0.227-1.88 2.23-3.88z" fill="#FCFDFF"/>
<path transform="translate(1140,1081)" d="m0 0c0.66 0.33 1.32 0.66 2 1-0.33 6.93-0.66 13.9-1 21-1.32-0.33-2.64-0.66-4-1-0.209-13-0.209-13 1-19l2-2z" fill="#FCFDFF"/>
<path transform="translate(1059,1086)" d="m0 0c0.99 0.66 1.98 1.32 3 2 0.0563 2.8-0.0419 5.35-0.312 8.12-0.0612 0.754-0.122 1.51-0.186 2.29-0.153 1.86-0.326 3.73-0.502 5.59-1.32-0.33-2.64-0.66-4-1-0.0538-2.46-0.0936-4.92-0.125-7.38-0.0168-0.699-0.0335-1.4-0.0508-2.12-0.0177-1.84 0.0727-3.67 0.176-5.51l2-2z" fill="#FCFDFF"/>
<path transform="translate(1295,1090)" d="m0 0c1.32 0.66 2.64 1.32 4 2v8c-2.33 0.0424-4.67 0.0409-7 0-0.33-0.33-0.66-0.66-1-1 0.25-3.44 0.25-3.44 1-7 0.99-0.66 1.98-1.32 3-2z" fill="#ACB2B3"/>
<path transform="translate(102,1563)" d="m0 0h2v3h2.75c7.75 0 7.75 0 11.2 2v2c-1.05 0.0909-1.05 0.0909-2.12 0.184-0.91 0.0838-1.82 0.168-2.76 0.254-0.905 0.0812-1.81 0.162-2.74 0.246-2.39 0.186-2.39 0.186-4.38 1.32v-3c-1.32-0.33-2.64-0.66-4-1-0.33 0.99-0.66 1.98-1 3-0.625-2.31-0.625-2.31-1-5 0.66-0.99 1.32-1.98 2-3z" fill="#FCFDFF"/>
<path transform="translate(1045 1091)" d="m0 0c1.21 0.0309 1.21 0.0309 2.44 0.0625 1.48 2.96 1.06 5.74 1 9-5.54 0.369-5.54 0.369-7.88-1.5-0.371-0.495-0.743-0.99-1.12-1.5 2.3-5.98 2.3-5.98 5.56-6.06z" fill="#ACB2B3"/>
<path transform="translate(1030,1089)" d="m0 0c2.45 2.53 3 3.43 3 7-1.46-0.141-2.92-0.288-4.38-0.438-1.22-0.122-1.22-0.122-2.46-0.246-2.16-0.316-2.16-0.316-4.16-1.32 0.375-2.44 0.375-2.44 1-5 2.76-1.38 4.1-0.92 7 0z" fill="#E7E9EB"/>
<path transform="translate(984 1026)" d="m0 0c0.949 0.0412 1.9 0.0825 2.88 0.125v8c-2.31 0.625-2.31 0.625-5 1-0.99-0.66-1.98-1.32-3-2-0.312-2.5-0.312-2.5 0-5 2-2 2-2 5.12-2.12z" fill="#FAFBFD"/>
<path transform="translate(1200,1087)" d="m0 0h3v16c-1.32-0.33-2.64-0.66-4-1-0.0269-2.12-0.0464-4.25-0.0625-6.38-0.0116-1.18-0.0232-2.37-0.0352-3.59 0.0977-3.04 0.0977-3.04 1.1-5.04z" fill="#FCFDFF"/>
<path transform="translate(80,1561)" d="m0 0c1.48 2.96 1.06 5.74 1 9-0.99 0.33-1.98 0.66-3 1-0.33 0.66-0.66 1.32-1 2-1.12-5.75-1.12-5.75 0-8h-2v-3c2-1 2-1 5-1z" fill="#FCFDFF"/>
<path transform="translate(35,1561)" d="m0 0c1.32 0.33 2.64 0.66 4 1 0.33 1.32 0.66 2.64 1 4h2c-0.75 2.38-0.75 2.38-2 5-1.98 0.99-1.98 0.99-4 2-0.33-3.96-0.66-7.92-1-12z" fill="#FCFDFF"/>
<path transform="translate(48,1560)" d="m0 0v2h2c1.35 2.71 1.07 5.01 1 8-1.5-1.25-1.5-1.25-3-3v-4c-3.28 0.752-3.28 0.752-5 4-0.688-1.81-0.688-1.81-1-4 1.95-2.73 2.55-3 6-3z" fill="#FCFDFF"/>
<path transform="translate(65,1562)" d="m0 0c0.66 0.33 1.32 0.66 2 1-0.33 0.99-0.66 1.98-1 3 2.47 0.99 2.47 0.99 5 2-0.312 1.94-0.312 1.94-1 4-0.99 0.33-1.98 0.66-3 1 0.33-0.99 0.66-1.98 1-3-1.32-0.33-2.64-0.66-4-1 0.33-2.31 0.66-4.62 1-7z" fill="#FCFDFF"/>
<path transform="translate(86,1561)" d="m0 0c2.47 0.495 2.47 0.495 5 1-0.66 2.97-1.32 5.94-2 9-0.99-0.33-1.98-0.66-3-1v-9z" fill="#FCFDFF"/>
</svg>
